<svg width="397" height="285" viewBox="0 0 397 285" fill="none" xmlns="http://www.w3.org/2000/svg">
<rect x="187.153" y="197.625" width="5.319" height="4.44" transform="rotate(-111 187.153 197.625)" fill="#480CA7" fill-opacity="0.65"/>
<rect x="49.1533" y="96.6246" width="9.319" height="5.44" transform="rotate(-81 49.1533 96.6246)" fill="#FF21FB" fill-opacity="0.65"/>
<rect x="218.153" y="84.6246" width="7.319" height="3.44" transform="rotate(180 218.153 84.6246)" fill="#FF21FB" fill-opacity="0.65"/>
<rect x="105.153" y="222.625" width="14.319" height="5.44" transform="rotate(152 105.153 222.625)" fill="#DCBCFA" fill-opacity="0.75"/>
<rect x="327.153" y="37.6246" width="7.319" height="5.44" transform="rotate(7 327.153 37.6246)" fill="#F54721" fill-opacity="0.85"/>
<rect x="17.1533" y="92.6246" width="20.319" height="6.44" transform="rotate(126 17.1533 92.6246)" fill="#FC9E1C" fill-opacity="0.85"/>
<rect x="183.153" y="192.625" width="23.319" height="5.44" transform="rotate(67 183.153 192.625)" fill="#480CA7" fill-opacity="0.75"/>
<rect x="268.153" y="81.6246" width="17.319" height="3.44" transform="rotate(122 268.153 81.6246)" fill="#BA3E03" fill-opacity="0.35"/>
<rect x="324.153" y="126.625" width="5.319" height="6.44" transform="rotate(-65 324.153 126.625)" fill="#480CA7" fill-opacity="0.9"/>
<rect x="226.153" y="263.625" width="5.319" height="7.44" transform="rotate(-128 226.153 263.625)" fill="#FC9E1C" fill-opacity="0.85"/>
<rect x="152.153" y="85.6246" width="12.319" height="5.44" transform="rotate(-86 152.153 85.6246)" fill="#480CA7" fill-opacity="0.45"/>
<rect x="62.1533" y="243.625" width="13.319" height="4.44" transform="rotate(-21 62.1533 243.625)" fill="#DCBCFA" fill-opacity="0.9"/>
<circle cx="99.6958" cy="279.167" r="1.5425" fill="#F62584" fill-opacity="0.6"/>
<circle cx="143.196" cy="63.6671" r="2.0425" fill="#F54721" fill-opacity="0.85"/>
<circle cx="197.196" cy="24.6671" r="2.0425" fill="#4BC8EF" fill-opacity="0.85"/>
<circle cx="231.696" cy="236.167" r="4.5425" fill="#9DED1A" fill-opacity="0.9"/>
<circle cx="219.196" cy="266.667" r="4.0425" fill="#C9FCBE" fill-opacity="0.75"/>
<circle cx="89.1958" cy="16.6671" r="4.0425" fill="#C9FCBE" fill-opacity="0.65"/>
<circle cx="104.696" cy="249.167" r="4.5425" fill="#03A3F5" fill-opacity="0.45"/>
<circle cx="235.196" cy="76.6671" r="3.0425" fill="#480CA7" fill-opacity="0.75"/>
<circle cx="175.696" cy="155.167" r="3.5425" fill="#BA3E03" fill-opacity="0.45"/>
<circle cx="78.6958" cy="243.167" r="4.5425" fill="#F62584" fill-opacity="0.6"/>
<circle cx="190.196" cy="20.6671" r="3.0425" fill="#DCBCFA"/>
<path d="M374.034 6.83745L381.701 2.93064L385.608 10.5982L377.94 14.505L374.034 6.83745Z" fill="#FC9E1C"/>
<path d="M231.223 68.2686L235.648 71.982L231.935 76.4075L227.509 72.6941L231.223 68.2686Z" fill="#BA3E03"/>
<path d="M396.251 141.209L390.764 146.89L385.082 141.404L390.569 135.722L396.251 141.209Z" fill="#F62584" fill-opacity="0.65"/>
<path d="M120.848 4.31231L127.855 2.69462L129.473 9.70159L122.466 11.3193L120.848 4.31231Z" fill="#755FFE" fill-opacity="0.85"/>
<path d="M14.7636 159.457L12.4116 156.752L13.5788 153.362L17.0979 152.678L19.4499 155.384L18.2827 158.773L14.7636 159.457Z" fill="#FFED36" fill-opacity="0.45"/>
<path d="M291.61 124.305L285.868 121.122L287.12 114.677L293.637 113.877L296.412 119.828L291.61 124.305Z" fill="#C9FCBE"/>
<path d="M63.2189 193.107L58.8022 199.655L52.2542 195.238L56.6709 188.69L63.2189 193.107Z" fill="#FC9E1C" fill-opacity="0.35"/>
<path d="M226.179 128.567L222.263 122.536L228.294 118.62L232.211 124.651L226.179 128.567Z" fill="#03A3F5" fill-opacity="0.45"/>
<path d="M110.219 221.068L114.73 224.99L112.395 230.492L106.44 229.971L105.095 224.147L110.219 221.068Z" fill="#FF21FB"/>
<path d="M363.189 197.332L366.488 205.498L357.766 204.273L363.189 197.332Z" fill="#03A3F5" fill-opacity="0.65"/>
<path d="M142.142 102.738L142.674 107.796L138.56 110.785L133.914 108.716L133.383 103.659L137.497 100.67L142.142 102.738Z" fill="#4BC8EF" fill-opacity="0.6"/>
<path d="M107.235 183.837L108.722 188.333L113.103 190.131L108.607 191.618L106.81 196L105.322 191.503L100.941 189.706L105.437 188.218L107.235 183.837Z" fill="#03A3F5"/>
<path d="M161.208 176.054L161.72 178.4L163.834 179.538L161.488 180.05L160.35 182.164L159.838 179.818L157.724 178.68L160.07 178.168L161.208 176.054Z" fill="#9DED1A" fill-opacity="0.65"/>
<path d="M380.795 270.345L383.398 273.685L386.821 271.192L385.23 275.116L389.1 276.834L384.906 277.418L385.354 281.629L382.751 278.289L379.328 280.782L380.92 276.858L377.049 275.14L381.243 274.556L380.795 270.345Z" fill="#FC9E1C" fill-opacity="0.35"/>
<path d="M61.4717 107.548L65.5991 106.601L64.7859 102.445L67.67 105.545L70.8625 102.763L69.6193 106.811L73.6251 108.185L69.4977 109.132L70.3109 113.288L67.4268 110.188L64.2343 112.97L65.4775 108.922L61.4717 107.548Z" fill="#BA3E03" fill-opacity="0.35"/>
<path d="M376.583 36.7993L373.967 35.6852L372.769 38.2632L372.426 35.4411L369.594 35.6924L371.867 33.9844L370.233 31.6577L372.849 32.7718L374.047 30.1938L374.39 33.0159L377.222 32.7646L374.949 34.4726L376.583 36.7993Z" fill="#C9FCBE" fill-opacity="0.9"/>
<path d="M390.508 145.697L387.181 146.903L388.279 150.268L385.571 147.99L383.206 150.622L383.825 147.138L380.363 146.407L383.69 145.201L382.592 141.836L385.3 144.114L387.665 141.482L387.046 144.966L390.508 145.697Z" fill="#C9FCBE" fill-opacity="0.85"/>
<path d="M149.689 44.768L150.419 42.6488L148.629 41.2999L150.87 41.339L151.6 39.2197L152.255 41.3632L154.496 41.4023L152.66 42.6879L153.316 44.8313L151.526 43.4824L149.689 44.768Z" fill="#DCBCFA" fill-opacity="0.35"/>
<path d="M299.049 282.368L300.136 280.408L298.607 278.769L300.808 279.197L301.894 277.236L302.167 279.461L304.368 279.889L302.336 280.836L302.609 283.06L301.081 281.421L299.049 282.368Z" fill="#DCBCFA" fill-opacity="0.6"/>
<path d="M213.193 69.3662L214.283 73.9749L218.491 76.1474L213.882 77.2374L211.71 81.4455L210.62 76.8368L206.412 74.6643L211.02 73.5743L213.193 69.3662Z" fill="#FFED36" fill-opacity="0.75"/>
<path d="M79.3604 50.7996L81.808 51.6905L83.4116 49.638L83.3207 52.241L85.7683 53.1319L83.2645 53.8498L83.1736 56.4529L81.7171 54.2935L79.2133 55.0115L80.8169 52.959L79.3604 50.7996Z" fill="#755FFE" fill-opacity="0.35"/>
<path d="M116.217 282.681L114.136 281.113L112.003 282.607L112.851 280.145L110.771 278.577L113.375 278.623L114.223 276.16L114.984 278.651L117.589 278.696L115.455 280.19L116.217 282.681Z" fill="#F62584"/>
<path d="M117.632 191.492L117.938 194.265L120.243 195.838L117.47 196.144L115.897 198.449L115.591 195.676L113.286 194.103L116.059 193.797L117.632 191.492Z" fill="#03A3F5" fill-opacity="0.6"/>
<path d="M266.57 110.264L269.901 110.264L270.931 107.096L271.96 110.264L275.291 110.264L272.596 112.222L273.626 115.39L270.931 113.432L268.236 115.39L269.265 112.222L266.57 110.264Z" fill="#FF21FB" fill-opacity="0.6"/>
<path d="M314.882 36.454L313.298 40.5814L316.734 43.3637L312.319 43.1323L310.734 47.2596L309.59 42.9893L305.175 42.7579L308.883 40.35L307.739 36.0797L311.174 38.8619L314.882 36.454Z" fill="#9DED1A" fill-opacity="0.6"/>
</svg>
