<svg width="309" height="114" viewBox="0 0 309 114" fill="none" xmlns="http://www.w3.org/2000/svg">
<path d="M88.657 88H83.7138L91.2457 66.1818H97.1903L104.712 88H99.7685L94.3033 71.1676H94.1328L88.657 88ZM88.348 79.424H100.024V83.0249H88.348V79.424ZM118.042 88H113.099L120.631 66.1818H126.575L134.096 88H129.153L123.688 71.1676H123.518L118.042 88ZM117.733 79.424H129.409V83.0249H117.733V79.424ZM151.4 88H143.666V66.1818H151.464C153.659 66.1818 155.548 66.6186 157.132 67.4922C158.716 68.3587 159.934 69.6051 160.786 71.2315C161.645 72.858 162.075 74.804 162.075 77.0696C162.075 79.3423 161.645 81.2955 160.786 82.929C159.934 84.5625 158.708 85.8161 157.11 86.6896C155.52 87.5632 153.616 88 151.4 88ZM148.279 84.0476H151.208C152.572 84.0476 153.719 83.8061 154.65 83.3232C155.587 82.8331 156.29 82.0767 156.759 81.054C157.235 80.0241 157.473 78.696 157.473 77.0696C157.473 75.4574 157.235 74.1399 156.759 73.1172C156.29 72.0945 155.591 71.3416 154.66 70.8587C153.73 70.3757 152.583 70.1342 151.219 70.1342H148.279V84.0476ZM177.048 66.1818V88H172.435V66.1818H177.048ZM206.036 66.1818V88H202.052L192.56 74.2678H192.4V88H187.787V66.1818H191.835L201.253 79.9034H201.445V66.1818H206.036ZM236.841 77.0909C236.841 79.4702 236.39 81.4943 235.488 83.1634C234.593 84.8324 233.371 86.1072 231.823 86.9879C230.282 87.8615 228.549 88.2983 226.624 88.2983C224.685 88.2983 222.945 87.858 221.404 86.9773C219.863 86.0966 218.645 84.8217 217.75 83.1527C216.855 81.4837 216.407 79.4631 216.407 77.0909C216.407 74.7116 216.855 72.6875 217.75 71.0185C218.645 69.3494 219.863 68.0781 221.404 67.2045C222.945 66.3239 224.685 65.8835 226.624 65.8835C228.549 65.8835 230.282 66.3239 231.823 67.2045C233.371 68.0781 234.593 69.3494 235.488 71.0185C236.39 72.6875 236.841 74.7116 236.841 77.0909ZM232.164 77.0909C232.164 75.5497 231.933 74.25 231.471 73.1918C231.017 72.1335 230.374 71.331 229.543 70.7841C228.712 70.2372 227.739 69.9638 226.624 69.9638C225.509 69.9638 224.536 70.2372 223.705 70.7841C222.874 71.331 222.228 72.1335 221.766 73.1918C221.311 74.25 221.084 75.5497 221.084 77.0909C221.084 78.6321 221.311 79.9318 221.766 80.9901C222.228 82.0483 222.874 82.8509 223.705 83.3977C224.536 83.9446 225.509 84.218 226.624 84.218C227.739 84.218 228.712 83.9446 229.543 83.3977C230.374 82.8509 231.017 82.0483 231.471 80.9901C231.933 79.9318 232.164 78.6321 232.164 77.0909ZM245.923 66.1818H251.089L256.065 75.5781H256.278L261.253 66.1818H266.42L258.462 80.2869V88H253.881V80.2869L245.923 66.1818ZM280.496 66.1818V88H275.883V66.1818H280.496ZM303.07 72.4567C302.985 71.5973 302.619 70.9297 301.973 70.4538C301.327 69.978 300.449 69.7401 299.341 69.7401C298.589 69.7401 297.953 69.8466 297.434 70.0597C296.916 70.2656 296.518 70.5533 296.241 70.9226C295.971 71.2919 295.836 71.7109 295.836 72.1797C295.822 72.5703 295.904 72.9112 296.081 73.2024C296.266 73.4936 296.518 73.7457 296.838 73.9588C297.157 74.1648 297.527 74.3459 297.946 74.5021C298.365 74.6513 298.812 74.7791 299.288 74.8857L301.248 75.3544C302.2 75.5675 303.074 75.8516 303.869 76.2067C304.665 76.5618 305.354 76.9986 305.936 77.517C306.518 78.0355 306.969 78.6463 307.289 79.3494C307.616 80.0526 307.782 80.8587 307.79 81.7678C307.782 83.103 307.442 84.2607 306.767 85.2408C306.099 86.2138 305.133 86.9702 303.869 87.5099C302.612 88.0426 301.096 88.3089 299.32 88.3089C297.559 88.3089 296.025 88.0391 294.718 87.4993C293.418 86.9595 292.403 86.1605 291.671 85.1023C290.947 84.0369 290.567 82.7195 290.531 81.1499H294.995C295.045 81.8814 295.254 82.4922 295.623 82.9822C296 83.4652 296.501 83.831 297.126 84.0795C297.758 84.321 298.471 84.4418 299.267 84.4418C300.048 84.4418 300.726 84.3281 301.302 84.1009C301.884 83.8736 302.335 83.5575 302.655 83.1527C302.974 82.7479 303.134 82.2827 303.134 81.7571C303.134 81.267 302.988 80.8551 302.697 80.5213C302.413 80.1875 301.994 79.9034 301.44 79.669C300.893 79.4347 300.222 79.2216 299.427 79.0298L297.051 78.4332C295.211 77.9858 293.759 77.2862 292.694 76.3345C291.628 75.3828 291.099 74.1009 291.106 72.4886C291.099 71.1676 291.451 70.0135 292.161 69.0263C292.878 68.0391 293.862 67.2685 295.112 66.7145C296.362 66.1605 297.782 65.8835 299.373 65.8835C300.993 65.8835 302.406 66.1605 303.613 66.7145C304.828 67.2685 305.773 68.0391 306.447 69.0263C307.122 70.0135 307.47 71.157 307.491 72.4567H303.07Z" fill="black"/>
<path d="M83.7585 107V98.2727H89.5369V99.794H85.6037V101.874H89.1534V103.395H85.6037V107H83.7585ZM98.7979 102.636C98.7979 103.588 98.6175 104.398 98.2567 105.065C97.8988 105.733 97.4102 106.243 96.7908 106.595C96.1744 106.945 95.4812 107.119 94.7113 107.119C93.9357 107.119 93.2397 106.943 92.6232 106.591C92.0067 106.239 91.5195 105.729 91.1616 105.061C90.8036 104.393 90.6246 103.585 90.6246 102.636C90.6246 101.685 90.8036 100.875 91.1616 100.207C91.5195 99.5398 92.0067 99.0312 92.6232 98.6818C93.2397 98.3295 93.9357 98.1534 94.7113 98.1534C95.4812 98.1534 96.1744 98.3295 96.7908 98.6818C97.4102 99.0312 97.8988 99.5398 98.2567 100.207C98.6175 100.875 98.7979 101.685 98.7979 102.636ZM96.9272 102.636C96.9272 102.02 96.8349 101.5 96.6502 101.077C96.4684 100.653 96.2113 100.332 95.8789 100.114C95.5465 99.8949 95.1573 99.7855 94.7113 99.7855C94.2653 99.7855 93.8761 99.8949 93.5437 100.114C93.2113 100.332 92.9528 100.653 92.7681 101.077C92.5863 101.5 92.4954 102.02 92.4954 102.636C92.4954 103.253 92.5863 103.773 92.7681 104.196C92.9528 104.619 93.2113 104.94 93.5437 105.159C93.8761 105.378 94.2653 105.487 94.7113 105.487C95.1573 105.487 95.5465 105.378 95.8789 105.159C96.2113 104.94 96.4684 104.619 96.6502 104.196C96.8349 103.773 96.9272 103.253 96.9272 102.636ZM108.185 102.636C108.185 103.588 108.004 104.398 107.643 105.065C107.286 105.733 106.797 106.243 106.178 106.595C105.561 106.945 104.868 107.119 104.098 107.119C103.322 107.119 102.626 106.943 102.01 106.591C101.393 106.239 100.906 105.729 100.548 105.061C100.19 104.393 100.011 103.585 100.011 102.636C100.011 101.685 100.19 100.875 100.548 100.207C100.906 99.5398 101.393 99.0312 102.01 98.6818C102.626 98.3295 103.322 98.1534 104.098 98.1534C104.868 98.1534 105.561 98.3295 106.178 98.6818C106.797 99.0312 107.286 99.5398 107.643 100.207C108.004 100.875 108.185 101.685 108.185 102.636ZM106.314 102.636C106.314 102.02 106.222 101.5 106.037 101.077C105.855 100.653 105.598 100.332 105.266 100.114C104.933 99.8949 104.544 99.7855 104.098 99.7855C103.652 99.7855 103.263 99.8949 102.93 100.114C102.598 100.332 102.339 100.653 102.155 101.077C101.973 101.5 101.882 102.02 101.882 102.636C101.882 103.253 101.973 103.773 102.155 104.196C102.339 104.619 102.598 104.94 102.93 105.159C103.263 105.378 103.652 105.487 104.098 105.487C104.544 105.487 104.933 105.378 105.266 105.159C105.598 104.94 105.855 104.619 106.037 104.196C106.222 103.773 106.314 103.253 106.314 102.636ZM108.821 99.794V98.2727H115.988V99.794H113.316V107H111.493V99.794H108.821ZM119.133 107L116.636 98.2727H118.652L120.096 104.337H120.169L121.762 98.2727H123.488L125.078 104.349H125.154L126.599 98.2727H128.615L126.118 107H124.319L122.657 101.294H122.589L120.931 107H119.133ZM129.602 107V98.2727H135.483V99.794H131.447V101.874H135.18V103.395H131.447V105.479H135.5V107H129.602ZM138.454 107H136.477L139.49 98.2727H141.868L144.876 107H142.899L140.713 100.267H140.645L138.454 107ZM138.331 103.57H143.001V105.01H138.331V103.57ZM145.926 107V98.2727H149.37C150.029 98.2727 150.591 98.3906 151.057 98.6264C151.526 98.8594 151.882 99.1903 152.127 99.6193C152.374 100.045 152.498 100.547 152.498 101.124C152.498 101.703 152.373 102.202 152.123 102.619C151.873 103.034 151.51 103.352 151.036 103.574C150.564 103.795 149.993 103.906 149.323 103.906H147.017V102.423H149.025C149.377 102.423 149.669 102.375 149.902 102.278C150.135 102.182 150.309 102.037 150.422 101.844C150.539 101.651 150.597 101.411 150.597 101.124C150.597 100.834 150.539 100.589 150.422 100.391C150.309 100.192 150.134 100.041 149.898 99.9389C149.665 99.8338 149.371 99.7812 149.016 99.7812H147.772V107H145.926ZM150.64 103.028L152.809 107H150.772L148.65 103.028H150.64ZM164.279 101.328H162.413C162.379 101.087 162.309 100.872 162.204 100.685C162.099 100.494 161.964 100.332 161.799 100.199C161.634 100.065 161.444 99.9631 161.228 99.892C161.015 99.821 160.783 99.7855 160.533 99.7855C160.082 99.7855 159.688 99.8977 159.353 100.122C159.018 100.344 158.758 100.668 158.573 101.094C158.388 101.517 158.296 102.031 158.296 102.636C158.296 103.259 158.388 103.781 158.573 104.205C158.761 104.628 159.022 104.947 159.357 105.163C159.692 105.379 160.08 105.487 160.521 105.487C160.768 105.487 160.996 105.455 161.207 105.389C161.42 105.324 161.609 105.229 161.773 105.104C161.938 104.976 162.075 104.821 162.183 104.639C162.293 104.457 162.37 104.25 162.413 104.017L164.279 104.026C164.231 104.426 164.11 104.812 163.917 105.185C163.727 105.554 163.469 105.885 163.146 106.178C162.825 106.467 162.441 106.697 161.995 106.868C161.552 107.036 161.05 107.119 160.491 107.119C159.712 107.119 159.016 106.943 158.403 106.591C157.792 106.239 157.309 105.729 156.954 105.061C156.602 104.393 156.425 103.585 156.425 102.636C156.425 101.685 156.604 100.875 156.962 100.207C157.32 99.5398 157.806 99.0312 158.42 98.6818C159.033 98.3295 159.724 98.1534 160.491 98.1534C160.996 98.1534 161.465 98.2244 161.897 98.3665C162.332 98.5085 162.717 98.7159 163.052 98.9886C163.387 99.2585 163.66 99.5895 163.87 99.9815C164.083 100.374 164.219 100.822 164.279 101.328ZM173.622 102.636C173.622 103.588 173.442 104.398 173.081 105.065C172.723 105.733 172.234 106.243 171.615 106.595C170.999 106.945 170.305 107.119 169.536 107.119C168.76 107.119 168.064 106.943 167.447 106.591C166.831 106.239 166.344 105.729 165.986 105.061C165.628 104.393 165.449 103.585 165.449 102.636C165.449 101.685 165.628 100.875 165.986 100.207C166.344 99.5398 166.831 99.0312 167.447 98.6818C168.064 98.3295 168.76 98.1534 169.536 98.1534C170.305 98.1534 170.999 98.3295 171.615 98.6818C172.234 99.0312 172.723 99.5398 173.081 100.207C173.442 100.875 173.622 101.685 173.622 102.636ZM171.751 102.636C171.751 102.02 171.659 101.5 171.474 101.077C171.293 100.653 171.036 100.332 170.703 100.114C170.371 99.8949 169.982 99.7855 169.536 99.7855C169.089 99.7855 168.7 99.8949 168.368 100.114C168.036 100.332 167.777 100.653 167.592 101.077C167.411 101.5 167.32 102.02 167.32 102.636C167.32 103.253 167.411 103.773 167.592 104.196C167.777 104.619 168.036 104.94 168.368 105.159C168.7 105.378 169.089 105.487 169.536 105.487C169.982 105.487 170.371 105.378 170.703 105.159C171.036 104.94 171.293 104.619 171.474 104.196C171.659 103.773 171.751 103.253 171.751 102.636ZM174.989 98.2727H177.265L179.668 104.136H179.77L182.174 98.2727H184.449V107H182.659V101.32H182.587L180.328 106.957H179.11L176.851 101.298H176.779V107H174.989V98.2727ZM185.969 98.2727H188.245L190.648 104.136H190.751L193.154 98.2727H195.43V107H193.64V101.32H193.567L191.309 106.957H190.09L187.832 101.298H187.759V107H185.969V98.2727ZM196.95 107V98.2727H202.831V99.794H198.795V101.874H202.528V103.395H198.795V105.479H202.848V107H196.95ZM204.298 107V98.2727H207.741C208.4 98.2727 208.962 98.3906 209.428 98.6264C209.897 98.8594 210.254 99.1903 210.498 99.6193C210.745 100.045 210.869 100.547 210.869 101.124C210.869 101.703 210.744 102.202 210.494 102.619C210.244 103.034 209.881 103.352 209.407 103.574C208.935 103.795 208.364 103.906 207.694 103.906H205.388V102.423H207.396C207.748 102.423 208.04 102.375 208.273 102.278C208.506 102.182 208.68 102.037 208.793 101.844C208.91 101.651 208.968 101.411 208.968 101.124C208.968 100.834 208.91 100.589 208.793 100.391C208.68 100.192 208.505 100.041 208.269 99.9389C208.036 99.8338 207.742 99.7812 207.387 99.7812H206.143V107H204.298ZM209.011 103.028L211.18 107H209.143L207.021 103.028H209.011ZM219.873 101.328H218.006C217.972 101.087 217.903 100.872 217.798 100.685C217.692 100.494 217.558 100.332 217.393 100.199C217.228 100.065 217.038 99.9631 216.822 99.892C216.609 99.821 216.377 99.7855 216.127 99.7855C215.675 99.7855 215.282 99.8977 214.947 100.122C214.612 100.344 214.352 100.668 214.167 101.094C213.982 101.517 213.89 102.031 213.89 102.636C213.89 103.259 213.982 103.781 214.167 104.205C214.354 104.628 214.616 104.947 214.951 105.163C215.286 105.379 215.674 105.487 216.114 105.487C216.362 105.487 216.59 105.455 216.8 105.389C217.013 105.324 217.202 105.229 217.367 105.104C217.532 104.976 217.668 104.821 217.776 104.639C217.887 104.457 217.964 104.25 218.006 104.017L219.873 104.026C219.825 104.426 219.704 104.812 219.511 105.185C219.32 105.554 219.063 105.885 218.739 106.178C218.418 106.467 218.035 106.697 217.589 106.868C217.146 107.036 216.644 107.119 216.085 107.119C215.306 107.119 214.61 106.943 213.996 106.591C213.386 106.239 212.903 105.729 212.548 105.061C212.195 104.393 212.019 103.585 212.019 102.636C212.019 101.685 212.198 100.875 212.556 100.207C212.914 99.5398 213.4 99.0312 214.013 98.6818C214.627 98.3295 215.317 98.1534 216.085 98.1534C216.59 98.1534 217.059 98.2244 217.491 98.3665C217.925 98.5085 218.31 98.7159 218.646 98.9886C218.981 99.2585 219.254 99.5895 219.464 99.9815C219.677 100.374 219.813 100.822 219.873 101.328ZM221.196 107V98.2727H227.077V99.794H223.041V101.874H226.774V103.395H223.041V105.479H227.094V107H221.196Z" fill="#4E4E4E"/>
<path d="M5.0736 104.5L25 41C36 52.5 78.0737 92.5 55.7026 106.079C38.0479 116.795 3.18783 101.281 5.07351 90.5C7.07358 79.065 64.4004 29.8596 75.3719 9.5C71.7147 11.3097 60 16.2425 60 19.5C60 23.5719 87.371 12.5708 87.371 17.5C87.371 23 73.371 29 73.371 29" stroke="black" stroke-width="8" stroke-linecap="round"/>
</svg>
